<svg xmlns="http://www.w3.org/2000/svg" width="20" height="20" viewBox="0 0 20 20">
    <path fill="#A0AAB1" fill-rule="nonzero" stroke="#A0AAB1" stroke-width=".5" d="M2.758 17.959C.407 15.606.587 12.616 3.24 9.96l8.217-8.189a4.32 4.32 0 0 1 2.21-1.145c.827-.147 2.056-.08 3.214 1.078l.003.003c1.185 1.185 1.289 2.37 1.166 3.155-.175 1.129-.883 1.94-1.18 2.235l-8.262 8.237c-.304.305-1.02 1.021-2.002 1.021-.601 0-1.169-.262-1.686-.78a.018.018 0 0 0-.004-.003c-.976-.977-.823-2.296.408-3.53l8.21-8.218 1.016 1.014-8.21 8.219c-.944.946-.578 1.33-.412 1.495l.006.007c.24.239.465.36.671.36.388 0 .793-.406.988-.6l8.263-8.238c.196-.196.665-.729.775-1.44.103-.664-.154-1.31-.763-1.919l-.002-.001c-.579-.58-1.234-.808-1.948-.681a2.901 2.901 0 0 0-1.446.747l-8.217 8.19c-1.202 1.203-2.865 3.58-.48 5.965 2.215 2.215 4.432.929 5.9-.54l6.777-6.82 1.019 1.012-6.778 6.821c-2.693 2.694-5.585 2.891-7.934.543z"/>
</svg>
