<svg xmlns="http://www.w3.org/2000/svg" width="20" height="20" viewBox="0 0 20 20">
    <path fill="#A0AAB1" fill-rule="nonzero" stroke="#A0AAB1" stroke-width=".8" d="M10.011 1.369c.344 0 .711.023 1.123.068l.573 2.287.092.023c.481.137.94.343 1.398.594l.069.046 2.017-1.212a9.22 9.22 0 0 1 1.558 1.578l-1.214 2.012.045.068c.23.412.436.892.596 1.395l.023.091 2.292.572c.046.457.069.823.069 1.098 0 .343-.023.708-.069 1.12l-2.292.572-.023.091c-.16.503-.343.96-.596 1.395l-.022.068 1.214 2.012a9.264 9.264 0 0 1-1.558 1.578l-2.017-1.212-.069.046c-.481.251-.94.457-1.398.594l-.092.023-.573 2.264a12.52 12.52 0 0 1-1.123.068c-.343 0-.71-.023-1.123-.068l-.573-2.264-.068-.023a5.51 5.51 0 0 1-1.421-.594l-.07-.046-2.039 1.235a8.6 8.6 0 0 1-1.581-1.578l1.214-2.012-.045-.068a6.166 6.166 0 0 1-.573-1.395l-.023-.092-2.27-.571a6.688 6.688 0 0 1-.091-1.12c0-.252.023-.618.092-1.098l2.269-.572.023-.091c.137-.457.32-.938.573-1.395l.045-.068L3.16 4.776A9.374 9.374 0 0 1 4.74 3.198L6.757 4.41l.069-.046a6.016 6.016 0 0 1 1.42-.594l.07-.023.572-2.287a8.046 8.046 0 0 1 1.123-.091zm0 11.866c.894 0 1.65-.32 2.292-.937.642-.64.94-1.395.94-2.287 0-.891-.32-1.646-.94-2.263-.641-.64-1.398-.938-2.292-.938-.893 0-1.65.32-2.291.938a3.07 3.07 0 0 0-.94 2.263c0 .892.32 1.647.94 2.287.641.617 1.398.937 2.291.937zm0-12.735c-.297 0-.687.023-1.214.091L8.2.66l-.138.572-.458 1.806a5.225 5.225 0 0 0-.825.343l-1.582-.96-.504-.32-.458.365a11.07 11.07 0 0 0-1.72 1.715l-.366.457.298.503.963 1.6a6.277 6.277 0 0 0-.344.824l-1.81.457-.597.183-.068.572A9.405 9.405 0 0 0 .5 9.989c0 .365.023.777.092 1.234l.091.572.55.137 1.811.457c.092.275.206.549.344.823l-.963 1.6-.298.504.344.457a9.628 9.628 0 0 0 1.742 1.738l.458.366.527-.298 1.582-.96c.275.137.55.252.825.343l.458 1.806.138.572.573.069c.435.045.848.091 1.215.091.297 0 .71-.023 1.214-.091l.596-.069.138-.572.458-1.806a6.31 6.31 0 0 0 .825-.343l1.604.96.505.298.458-.366a10.15 10.15 0 0 0 1.719-1.715l.367-.457-.298-.503-.963-1.6c.138-.275.252-.55.344-.824l1.81-.457.574-.137.068-.595c.046-.434.092-.846.092-1.212 0-.32-.023-.708-.092-1.188l-.023-.618-.573-.137-1.81-.457c-.115-.298-.23-.572-.344-.823l.963-1.6.298-.504-.344-.457a9.487 9.487 0 0 0-1.72-1.738l-.458-.366-.504.298-1.604.96a6.31 6.31 0 0 0-.825-.343l-.459-1.806-.183-.572-.596-.069A7.818 7.818 0 0 0 10.011.5zm0 11.866c-.664 0-1.214-.228-1.696-.708-.48-.48-.687-1.03-.687-1.692 0-.663.23-1.19.71-1.67.482-.48 1.032-.685 1.696-.685.665 0 1.215.228 1.696.708.482.48.688 1.007.688 1.67s-.23 1.211-.688 1.692c-.504.457-1.054.685-1.719.685z"/>
</svg>
